<?xml version="1.0" standalone="no"?>
<!DOCTYPE svg PUBLIC "-//W3C//DTD SVG 20010904//EN"
 "http://www.w3.org/TR/2001/REC-SVG-20010904/DTD/svg10.dtd">
<svg version="1.0" xmlns="http://www.w3.org/2000/svg"
 width="2119.000000pt" height="2119.000000pt" viewBox="0 0 2119.000000 2119.000000"
 preserveAspectRatio="xMidYMid meet">
<metadata>
Created by potrace 1.14, written by Peter Selinger 2001-2017
</metadata>
<g transform="translate(0.000000,2119.000000) scale(0.100000,-0.100000)"
fill="#000000" stroke="none">
<path d="M14370 20282 c-248 -95 -573 -246 -812 -378 -1122 -617 -1976 -1461
-2464 -2434 -287 -573 -514 -1214 -649 -1833 -15 -69 -20 -78 -44 -83 -552
-126 -1281 -363 -1483 -481 -207 -121 -510 -523 -828 -1098 -158 -286 -456
-897 -440 -903 4 -2 106 22 226 52 842 210 1798 382 2401 432 81 6 82 6 87
-17 40 -192 97 -380 157 -518 l23 -54 125 -59 c69 -33 127 -61 129 -63 3 -3
-1439 -2606 -1535 -2771 l-24 -42 -60 19 c-169 53 -252 63 -499 64 -207 0
-249 -3 -350 -23 -347 -70 -652 -228 -912 -471 l-78 -73 -77 77 c-382 383
-982 461 -1456 191 l-77 -44 -53 44 c-174 150 -451 276 -702 319 -132 23 -356
23 -490 1 -398 -68 -760 -300 -985 -631 -56 -82 -150 -267 -175 -343 -15 -47
-20 -53 -39 -48 -152 41 -438 52 -601 23 -191 -34 -372 -101 -525 -193 -49
-30 -92 -54 -95 -54 -3 0 -4 1477 -3 3283 l3 3282 3293 3 c3199 2 3295 3 3320
21 120 84 755 314 1179 427 180 48 182 49 189 79 5 24 79 288 100 358 5 16
-206 17 -4334 17 -4300 0 -4340 0 -4403 -20 -114 -35 -206 -129 -242 -245 -9
-31 -12 -1346 -12 -6065 l0 -6025 24 -60 c33 -83 125 -174 204 -203 l58 -22
3999 0 4000 0 0 -935 0 -935 -1597 -2 -1598 -3 -41 -22 c-60 -32 -122 -106
-140 -170 -12 -42 -15 -97 -12 -280 3 -214 4 -231 26 -270 30 -58 86 -111 141
-137 l46 -21 4375 0 4375 0 46 21 c55 26 111 79 141 137 22 39 23 56 26 270 3
183 0 238 -12 280 -18 64 -80 138 -140 170 l-41 22 -1597 3 -1598 2 0 935 0
935 4000 0 3999 0 58 22 c79 29 171 120 204 203 l24 60 0 6025 c0 4719 -3
6034 -12 6065 -36 116 -128 210 -242 245 -62 20 -98 20 -2381 20 l-2318 0 -8
-32 c-26 -122 -170 -509 -273 -738 l-59 -130 2194 0 2194 0 0 -4820 0 -4820
-3149 0 -3148 0 -32 102 c-120 383 -392 703 -751 883 -152 76 -351 136 -496
149 -161 15 -154 13 -154 55 0 163 -89 422 -205 596 -169 255 -422 432 -725
508 l-89 22 -4 205 c-5 207 -14 282 -57 450 -68 266 -224 547 -416 749 l-97
102 22 57 c81 213 1176 2989 1181 2995 4 4 64 -19 134 -52 l127 -61 133 44
c74 24 204 78 290 119 l156 75 73 -106 c227 -330 516 -818 797 -1347 91 -172
372 -734 457 -915 l21 -45 82 170 c319 661 535 1236 626 1670 24 111 28 155
28 295 1 154 -1 171 -27 255 -115 366 -281 782 -473 1184 -41 85 -74 158 -74
162 0 5 62 90 138 191 308 410 569 840 802 1323 153 316 247 557 330 850 250
883 273 1856 69 2880 -81 410 -239 945 -278 945 -9 0 -72 -22 -141 -48z
m-1370 -2813 c391 -97 660 -483 610 -876 -25 -202 -104 -359 -252 -499 -88
-84 -170 -135 -275 -174 -491 -178 -1019 146 -1085 666 -16 124 0 252 45 374
48 126 90 192 187 290 210 212 485 290 770 219z m3676 -12467 c87 -45 154
-154 154 -252 0 -114 -83 -229 -189 -265 -182 -60 -370 72 -371 261 0 34 5 76
11 95 25 72 101 150 174 177 48 18 173 9 221 -16z m907 -5 c136 -80 184 -243
110 -379 -91 -167 -315 -198 -447 -62 -19 19 -42 52 -52 72 -20 41 -30 142
-20 195 14 72 99 165 181 195 17 7 64 10 106 9 61 -3 85 -9 122 -30z m867 12
c55 -25 114 -80 143 -134 17 -32 22 -57 22 -125 0 -96 -13 -129 -74 -193 -60
-64 -103 -82 -201 -82 -98 0 -141 18 -201 82 -61 64 -74 97 -74 193 0 98 17
140 82 202 55 54 115 78 193 78 44 0 80 -7 110 -21z"/>
<path d="M12768 16353 c17 -2 47 -2 65 0 17 2 3 4 -33 4 -36 0 -50 -2 -32 -4z"/>
</g>
</svg>
